# xmcd
#
# Track frame offsets:
#	150
#	15280
#	33290
#	48185
#	60235
#	67587
#	80687
#	99132
#	110020
#	122762
#	138192
#	149017
#	161170
#	173765
#	184970
#
# Disc length: 2620 seconds
#
# Revision: 0
# Processed by: cddbd v1.4PL0 Copyright (c) Steve Scherf et al.
# Submitted via: EasyCDDAExtractor 4.6.9.1
#
DISCID=bc0a3a0f
DTITLE=Various Artist - COUNTRY HIT KIT
DYEAR=2002
DGENRE=Instrumental
TTITLE0=I`M MOVING ON
TTITLE1=EL PASO
TTITLE2=MAMA TRIED
TTITLE3=STAND BY YOUR MAN
TTITLE4=JOHN HENRY
TTITLE5=ROSE GARDEN
TTITLE6=NIGHT LIFE
TTITLE7=TENNESSEE FLAT TOP BOX
TTITLE8=THE 8TH OF JANUARY
TTITLE9=CRAZY
TTITLE10=NASHVILLE JUBILEE
TTITLE11=WHITE LIGHTNING
TTITLE12=LONESOME ROAD BLUES
TTITLE13=RING OF FIRE
TTITLE14=KING OF THE ROAD
EXTD=
EXTT0=
EXTT1=
EXTT2=
EXTT3=
EXTT4=
EXTT5=
EXTT6=
EXTT7=
EXTT8=
EXTT9=
EXTT10=
EXTT11=
EXTT12=
EXTT13=
EXTT14=
PLAYORDER=
